<svg width="115" height="115" viewBox="0 0 115 115" fill="none" xmlns="http://www.w3.org/2000/svg">
<path d="M115 57.5C115 44.2218 110.405 31.3528 101.994 21.0781C93.5831 10.8034 81.8755 3.75622 68.859 1.13314C55.8425 -1.48994 42.3193 0.472759 30.5855 6.68799C18.8518 12.9032 9.63066 22.9879 4.48789 35.2297L15.0903 39.6838C19.2045 29.8903 26.5814 21.8226 35.9684 16.8504C45.3554 11.8782 56.174 10.308 66.5872 12.4065C77.0004 14.505 86.3664 20.1427 93.095 28.3625C99.8236 36.5823 103.5 46.8774 103.5 57.5H115Z" fill="#3F8CFF"/>
<path d="M114.883 61.1661C114.183 72.1162 110.365 82.6375 103.88 91.4879C97.3939 100.338 88.5113 107.148 78.2805 111.114L74.1244 100.391C82.3091 97.2185 89.4152 91.7706 94.6037 84.6903C99.7923 77.61 102.847 69.1929 103.406 60.4329L114.883 61.1661Z" fill="#D9D9D9"/>
<path d="M75.2646 112.187C64.4356 115.705 52.8059 115.928 41.8497 112.829C30.8934 109.73 21.1039 103.448 13.7219 94.7791L22.4776 87.3233C28.3831 94.2584 36.2147 99.2841 44.9797 101.763C53.7447 104.243 63.0485 104.064 71.7117 101.25L75.2646 112.187Z" fill="black"/>
<path d="M11.9562 92.6001C6.06398 84.9546 2.19124 75.9489 0.695006 66.4131C-0.801228 56.8772 0.127201 47.1181 3.3947 38.0355L14.2158 41.9284C11.6018 49.1945 10.859 57.0018 12.056 64.6304C13.253 72.2591 16.3512 79.4637 21.065 85.5801L11.9562 92.6001Z" fill="#767676"/>
</svg>
