<svg width="44" height="44" viewBox="0 0 44 44" fill="none" xmlns="http://www.w3.org/2000/svg">
<rect width="44" height="44" rx="14" fill="#F4F9FD"/>
<path d="M20.0312 14.1719C20.5833 14.1721 21.0312 14.6197 21.0312 15.1719C21.0311 15.6846 20.6447 16.1073 20.1475 16.165L20.0312 16.1719H16C14.4024 16.1719 13.0962 17.4204 13.0049 18.9951L13 19.1719V29.1719C13.0002 30.7692 14.2488 32.0745 15.8232 32.166L16 32.1719H26C27.5977 32.1719 28.9039 30.9225 28.9951 29.3477L29 29.1719V24.2529C29.0002 23.7008 29.4478 23.2529 30 23.2529C30.5128 23.2529 30.9354 23.6394 30.9932 24.1367L31 24.2529V29.1719C30.9998 31.8605 28.8775 34.0534 26.2168 34.167L26 34.1719H16C13.3113 34.1719 11.1186 32.0494 11.0049 29.3887L11 29.1719V19.1719C11 16.4831 13.1224 14.2893 15.7832 14.1758L16 14.1719H20.0312ZM25.8789 13.8789C27.0505 12.7073 28.9495 12.7073 30.1211 13.8789L31.293 15.0498C32.4645 16.2214 32.4645 18.1214 31.293 19.293L22.707 27.8789C22.5195 28.0663 22.2651 28.1719 22 28.1719H18C17.4478 28.1719 17.0002 27.724 17 27.1719V23.1719C17 22.9067 17.1055 22.6524 17.293 22.4648L25.8789 13.8789ZM28.707 15.293C28.3165 14.9024 27.6835 14.9024 27.293 15.293L19 23.5859V26.1719H21.584L29.8789 17.8789C30.2394 17.5184 30.2669 16.9509 29.9619 16.5586L29.8789 16.4648L28.707 15.293Z" fill="#0A1629"/>
</svg>
