<svg width="24" height="24" viewBox="0 0 24 24" fill="none" xmlns="http://www.w3.org/2000/svg">
<path fill-rule="evenodd" clip-rule="evenodd" d="M13.1169 2.00009H12.6169C11.1421 1.99633 9.68472 2.34152 8.36607 3.00758C5.15179 4.61401 3.11832 7.90218 3.11693 11.4998L3.12322 11.8681C3.16381 12.9716 3.39941 14.0595 3.81816 15.0807L3.92393 15.3252L3.2286 17.0033C2.91564 17.7584 2.92435 18.6085 3.25269 19.357L3.32817 19.5164C4.04433 20.9219 5.74201 21.541 7.20512 20.8992L8.80293 20.1972L9.03643 20.2989C10.1711 20.7642 11.3884 21.0034 12.6195 21.0002C16.2149 20.9988 19.5031 18.9653 21.1114 15.7472C21.7756 14.4324 22.1208 12.975 22.117 11.4976L22.117 11.0002C21.8542 6.21071 18.1382 2.41092 13.4391 2.02007L13.1169 2.00009ZM12.6144 4.00009L13.0749 3.99917L13.0618 3.99857C16.8687 4.20867 19.9084 7.2484 20.1185 11.0553L20.117 11.5002C20.12 12.6652 19.8484 13.8118 19.3243 14.8493C18.0527 17.3937 15.4568 18.9991 12.6165 19.0002C11.452 19.0032 10.3053 18.7316 9.26778 18.2076C9.0013 18.073 8.68862 18.0645 8.41522 18.1844L6.40171 19.0676C5.89594 19.2895 5.30609 19.0593 5.08423 18.5536C4.97478 18.3041 4.97188 18.0207 5.0762 17.769L5.94073 15.683C6.05229 15.4139 6.0409 15.1094 5.90952 14.8493C5.38547 13.8118 5.11389 12.6651 5.11692 11.5028C5.11802 8.66035 6.7234 6.06442 9.26398 4.79468C10.3053 4.26873 11.4519 3.99713 12.6144 4.00009Z" fill="white"/>
</svg>
